<svg width="24px" height="24px" viewBox="0 0 0.72 0.72" fill="currentColor" xmlns="http://www.w3.org/2000/svg">
  <path
    d="M0.101 0.268A0.225 0.225 0 0 1 0.268 0.101c0.06 -0.014 0.123 -0.014 0.183 0a0.225 0.225 0 0 1 0.168 0.168c0.014 0.06 0.014 0.123 0 0.183a0.225 0.225 0 0 1 -0.168 0.168c-0.06 0.014 -0.123 0.014 -0.183 0a0.225 0.225 0 0 1 -0.168 -0.168 0.4 0.4 0 0 1 0 -0.183Z"
    fill="#363853"
    fill-opacity="0.15"
    stroke="#363853"
    stroke-width="0.045"
  />
  <path d="M0.435 0.36h-0.15m0.075 0.075v-0.15" stroke="#363853" stroke-width="0.045" stroke-linecap="round" />
</svg>
