<svg
  version="1.1"
  id="Layer_1"
  xmlns="http://www.w3.org/2000/svg"
  xmlns:xlink="http://www.w3.org/1999/xlink"
  x="0px"
  y="0px"
  viewBox="0 0 18 18"
  width="18"
  height="18"
>
  <path
    style="fill:#637888;"
    points="97.067,426.667 74.667,404.267 262.4,208 459.733,19.2 482.133,42.667 284.8,230.4 	"
    d="m3.485 15.319 -0.805 -0.805 6.741 -7.047L16.507 0.689l0.804 0.843 -7.085 6.74Z"
  />
  <path
    style="fill:#637888;"
    points="429.867,452.267 262.4,230.4 96,101.333 116.267,76.8 284.8,208 455.467,433.067 	"
    d="M15.434 16.238 9.421 8.272 3.447 3.638l0.728 -0.88 6.051 4.71 6.127 8.081Z"
  />
  <path
    style="fill:#3A5569;"
    cx="281.6"
    cy="219.733"
    r="109.867"
    d="M14.055 7.889a3.945 3.945 0 0 1 -3.944 3.945 3.945 3.945 0 0 1 -3.945 -3.945 3.945 3.945 0 0 1 7.889 0"
  />
  <path
    style="fill:#F16D6E;"
    cx="86.4"
    cy="414.933"
    r="86.4"
    d="M6.204 14.898A3.102 3.102 0 0 1 3.102 18 3.102 3.102 0 0 1 0 14.898a3.102 3.102 0 0 1 6.204 0"
  />
  <path
    style="fill:#60C3AB;"
    cx="105.6"
    cy="88.533"
    r="66.133"
    d="M6.166 3.179a2.374 2.374 0 0 1 -2.374 2.374 2.374 2.374 0 0 1 -2.374 -2.374 2.374 2.374 0 0 1 4.749 0"
  />
  <path
    style="fill:#80C350;"
    cx="442.667"
    cy="442.667"
    r="58.667"
    d="M18 15.894A2.107 2.107 0 0 1 15.894 18a2.107 2.107 0 0 1 -2.107 -2.106 2.107 2.107 0 0 1 4.213 0"
  />
  <path
    style="fill:#F7B044;"
    cx="454.4"
    cy="46.933"
    r="46.933"
    d="M18 1.685a1.685 1.685 0 0 1 -1.685 1.685 1.685 1.685 0 0 1 -1.685 -1.685 1.685 1.685 0 0 1 3.37 0"
  />
</svg>
