<svg
  version="1.1"
  id="Layer_1"
  xmlns="http://www.w3.org/2000/svg"
  xmlns:xlink="http://www.w3.org/1999/xlink"
  x="0px"
  y="0px"
  viewBox="0 0 24 24"
  width="24"
  height="24"
>
  <path
    style="fill:#637888;"
    points="97.067,426.667 74.667,404.267 262.4,208 459.733,19.2 482.133,42.667 284.8,230.4 	"
    d="M4.647 20.426L3.574 19.353L12.562 9.957L22.009 0.919L23.081 2.043L13.634 11.03Z"
  />
  <path
    style="fill:#637888;"
    points="429.867,452.267 262.4,230.4 96,101.333 116.267,76.8 284.8,208 455.467,433.067 	"
    d="M20.579 21.651L12.562 11.03L4.596 4.851L5.566 3.677L13.634 9.957L21.804 20.732Z"
  />
  <path
    style="fill:#3A5569;"
    cx="281.6"
    cy="219.733"
    r="109.867"
    d="M18.74 10.519A5.26 5.26 0 0 1 13.481 15.779A5.26 5.26 0 0 1 8.221 10.519A5.26 5.26 0 0 1 18.74 10.519z"
  />
  <path
    style="fill:#F16D6E;"
    cx="86.4"
    cy="414.933"
    r="86.4"
    d="M8.272 19.864A4.136 4.136 0 0 1 4.136 24A4.136 4.136 0 0 1 0 19.864A4.136 4.136 0 0 1 8.272 19.864z"
  />
  <path
    style="fill:#60C3AB;"
    cx="105.6"
    cy="88.533"
    r="66.133"
    d="M8.221 4.238A3.166 3.166 0 0 1 5.055 7.404A3.166 3.166 0 0 1 1.889 4.238A3.166 3.166 0 0 1 8.221 4.238z"
  />
  <path
    style="fill:#80C350;"
    cx="442.667"
    cy="442.667"
    r="58.667"
    d="M24 21.192A2.809 2.809 0 0 1 21.192 24A2.809 2.809 0 0 1 18.383 21.192A2.809 2.809 0 0 1 24 21.192z"
  />
  <path
    style="fill:#F7B044;"
    cx="454.4"
    cy="46.933"
    r="46.933"
    d="M24 2.247A2.247 2.247 0 0 1 21.753 4.494A2.247 2.247 0 0 1 19.506 2.247A2.247 2.247 0 0 1 24 2.247z"
  />
</svg>
