<svg fill="currentColor" width="16px" height="16px" viewBox="0 0 0.48 0.48" xmlns="http://www.w3.org/2000/svg">
  <path
    d="M0.26 0.08v0.32a0.02 0.02 0 0 1 -0.04 0V0.08a0.02 0.02 0 0 1 0.04 0M0.16 0.1a0.02 0.02 0 0 0 -0.02 0.02v0.24a0.02 0.02 0 0 0 0.04 0V0.12a0.02 0.02 0 0 0 -0.02 -0.02M0.08 0.14a0.02 0.02 0 0 0 -0.02 0.02v0.16a0.02 0.02 0 0 0 0.04 0V0.16a0.02 0.02 0 0 0 -0.02 -0.02m0.24 -0.04a0.02 0.02 0 0 0 -0.02 0.02v0.24a0.02 0.02 0 0 0 0.04 0V0.12a0.02 0.02 0 0 0 -0.02 -0.02m0.08 0.04a0.02 0.02 0 0 0 -0.02 0.02v0.16a0.02 0.02 0 0 0 0.04 0V0.16a0.02 0.02 0 0 0 -0.02 -0.02"
  />
</svg>
