<svg width="16px" height="16px" viewBox="0 0 16 16" xmlns="http://www.w3.org/2000/svg">
  <path d="M8 10.667c1.114 0 2 -0.887 2 -2s-0.886 -2 -2 -2 -2 0.887 -2 2 0.886 2 2 2" />
  <path
    d="M13.878 7.457a5.933 5.933 0 0 0 -0.903 -2.146 6 6 0 0 0 -1.62 -1.62 6 6 0 0 0 -2.146 -0.903 6 6 0 0 0 -1.225 -0.12V1.333L5.333 3.333l2.65 2V4.001c0.323 -0.001 0.645 0.029 0.957 0.093a4.667 4.667 0 0 1 1.668 0.702 4.667 4.667 0 0 1 1.261 1.261A4.647 4.647 0 0 1 12.667 8.667a4.667 4.667 0 0 1 -0.367 1.817 4.667 4.667 0 0 1 -0.429 0.792 4.667 4.667 0 0 1 -0.572 0.693 4.687 4.687 0 0 1 -2.357 1.271 4.733 4.733 0 0 1 -1.881 0 4.667 4.667 0 0 1 -1.669 -0.703 4.667 4.667 0 0 1 -1.26 -1.26A4.667 4.667 0 0 1 3.333 8.667H2a6 6 0 0 0 1.026 3.356 6.067 6.067 0 0 0 1.619 1.619A5.967 5.967 0 0 0 8 14.667a6 6 0 0 0 1.209 -0.122 6 6 0 0 0 2.145 -0.903 6 6 0 0 0 0.887 -0.733 6.133 6.133 0 0 0 0.733 -0.888A5.967 5.967 0 0 0 14 8.667a6 6 0 0 0 -0.122 -1.209"
  />
</svg>
