<svg fill="currentColor" width="24px" height="24px" viewBox="0 0 22 22">
  <path d="m16.902 2.304c0.8187-0.42416 1.787-0.23298 2.4072 0.38717 0.6201 0.62015 0.8113 1.5885 0.3872 2.4071-0.7866 1.5181-1.7193 2.8479-2.8417 4.0435 1.1284 1.4032 1.9764 2.8568 2.3346 4.2247 0.4175 1.5942 0.1834 3.2014-1.1994 4.3077-1.1107 0.8885-2.3588 0.7686-3.3556 0.3569-0.9702-0.4008-1.8307-1.1176-2.4214-1.6881-0.3641-0.3517-0.3742-0.932-0.0224-1.2962 0.3517-0.3641 0.932-0.3742 1.2961-0.0225 0.532 0.5139 1.195 1.0427 1.8477 1.3123 0.6261 0.2587 1.1004 0.2339 1.5103-0.094 0.6469-0.5176 0.8677-1.2794 0.5712-2.4116-0.2612-0.9974-0.9109-2.1738-1.8885-3.4132-0.5323 0.463-1.1008 0.9058-1.7087 1.3325-0.027 0.019-0.0546 0.0363-0.0828 0.0519-0.0568 0.6667-0.2811 1.2371-0.676 1.6918-0.4495 0.5176-1.0422 0.7951-1.6087 0.9495-0.903 0.2461-1.9839 0.2303-2.7726 0.2188-0.15178-0.0022-0.29274-0.0043-0.41953-0.0043-0.50626 0-0.91666-0.4104-0.91666-0.9166 0-0.1268-0.00206-0.2678-0.00427-0.4195-0.01149-0.7887-0.02725-1.8696 0.21885-2.7726 0.15439-0.56651 0.43185-1.1593 0.94945-1.6088 0.45468-0.39487 1.0252-0.61914 1.6919-0.67597 0.0156-0.02818 0.0329-0.05583 0.0518-0.0828 0.3644-0.51911 0.7406-1.0095 1.1309-1.4731-2.6496-1.4543-5.1975-1.3354-6.519-0.01387-0.88711 0.88711-1.2375 2.2875-0.92283 3.9656 0.31366 1.6728 1.2805 3.522 2.8674 5.1089 0.93686 0.9369 1.9491 1.5911 2.7771 2.0091 0.41354 0.2088 0.77359 0.3548 1.0457 0.4465 0.2037 0.0686 0.3205 0.0939 0.3634 0.1032 0.0226 0.0049 0.0246 0.0053 0.0078 0.0053 0.5063 0 0.9167 0.4104 0.9167 0.9167s-0.4104 0.9167-0.9167 0.9166c-0.2776 0-0.635-0.0961-0.9564-0.2044-0.36088-0.1216-0.8013-0.3022-1.2867-0.5473-0.96991-0.4896-2.1496-1.2517-3.2473-2.3493-1.814-1.814-2.9828-3.9868-3.3729-6.0675-0.38915-2.0754-0.01137-4.16 1.4284-5.5998 2.2489-2.249 5.9795-1.922 9.0975-0.06649 1.2458-1.2059 2.6376-2.1982 4.2389-3.0279zm-4.749 6.3774c0.4827 0.28036 0.8856 0.68317 1.1659 1.1659 2.0754-1.5631 3.5853-3.3452 4.7496-5.5925 0.0362-0.06982 0.0317-0.17995-0.0557-0.26737-0.0874-0.08741-0.1975-0.09189-0.2674-0.05572-2.2472 1.1644-4.0293 2.6743-5.5924 4.7496zm-2.9847 4.1507c0.65462 0.0034 1.2725-0.0135 1.8007-0.1575 0.3559-0.097 0.575-0.2311 0.7066-0.3827 0.1192-0.1373 0.2413-0.3736 0.2413-0.8378 0-0.757-0.6136-1.3707-1.3706-1.3707-0.4642 0-0.70058 0.1221-0.83784 0.2413-0.1516 0.1317-0.28575 0.3507-0.38276 0.7066-0.14395 0.5283-0.16088 1.1461-0.15742 1.8008z"/>
</svg>
