<svg
  width="18px"
  height="18px"
  viewBox="0 0 23.04 23.04"
  class="icon"
  version="1.1"
  xmlns="http://www.w3.org/2000/svg"
  fill="currentColor"
>
  <path
    d="M20.383 5.35a0.72 0.72 0 0 0 -1.181 0.821A9.36 9.36 0 1 1 2.16 11.52a9.418 9.418 0 0 1 6.689 -8.971 0.72 0.72 0 1 0 -0.41 -1.382A10.8 10.8 0 1 0 22.32 11.52a10.735 10.735 0 0 0 -1.937 -6.17"
  />
  <path
    d="M14.191 2.549a9.31 9.31 0 0 1 3.089 1.62 0.72 0.72 0 0 0 0.893 -1.13 10.728 10.728 0 0 0 -3.6 -1.872 0.72 0.72 0 0 0 -0.41 1.382zM11.009 1.951a0.828 0.828 0 0 0 0.238 0.151 0.677 0.677 0 0 0 0.547 0 0.835 0.835 0 0 0 0.238 -0.151A0.72 0.72 0 0 0 12.24 1.44a0.756 0.756 0 0 0 -0.209 -0.511A0.72 0.72 0 0 0 11.376 0.72a0.468 0.468 0 0 0 -0.13 0.043 0.533 0.533 0 0 0 -0.13 0.065l-0.108 0.086a0.72 0.72 0 0 0 -0.151 0.238A0.72 0.72 0 0 0 10.8 1.44a0.72 0.72 0 0 0 0.058 0.274 0.835 0.835 0 0 0 0.151 0.238m5.342 4.738a0.72 0.72 0 0 0 -1.015 0L11.52 10.505l-3.809 -3.816a0.72 0.72 0 0 0 -1.015 1.015L10.505 11.52l-3.816 3.809a0.72 0.72 0 1 0 1.015 1.015L11.52 12.535 15.329 16.344a0.72 0.72 0 0 0 1.015 -1.015L12.535 11.52 16.344 7.711a0.72 0.72 0 0 0 0.007 -1.022"
  />
</svg>
