<svg fill="currentColor" width="16px" height="16px" viewBox="0 0 0.48 0.48" xmlns="http://www.w3.org/2000/svg">
  <path
    d="M0.421 0.24A0.021 0.021 0 0 0 0.4 0.261v0.12A0.021 0.021 0 0 1 0.379 0.4H0.101A0.021 0.021 0 0 1 0.08 0.379V0.101A0.021 0.021 0 0 1 0.101 0.08h0.12a0.021 0.021 0 0 0 0 -0.04H0.101a0.059 0.059 0 0 0 -0.059 0.059v0.28a0.059 0.059 0 0 0 0.059 0.059h0.28A0.059 0.059 0 0 0 0.44 0.379V0.261A0.021 0.021 0 0 0 0.421 0.24M0.12 0.256v0.085a0.021 0.021 0 0 0 0.021 0.021h0.085L0.238 0.354 0.376 0.216 0.434 0.16a0.021 0.021 0 0 0 0 -0.029L0.35 0.046a0.021 0.021 0 0 0 -0.029 0L0.266 0.102 0.128 0.24 0.122 0.254M0.338 0.086l0.056 0.056 -0.029 0.029L0.31 0.114ZM0.16 0.264 0.278 0.146l0.056 0.056L0.216 0.32H0.16Z"
  />
</svg>
