<svg width="18px" height="18px" viewBox="0 0 0.48 0.48" fill="none" xmlns="http://www.w3.org/2000/svg" fill="currentColor">
  <path
    d="m0.268 0.146 0.072 -0.072a0.047 0.047 0 0 1 0.067 0.067l-0.072 0.072a0.244 0.244 0 0 1 -0.113 0.064l-0.014 0.003a0.006 0.006 0 0 1 -0.007 -0.007l0.003 -0.014a0.244 0.244 0 0 1 0.064 -0.113"
  />
  <path
    d="M0.409 0.138c-0.033 0.011 -0.078 -0.033 -0.067 -0.067m-0.003 0.003 -0.072 0.072a0.244 0.244 0 0 0 -0.064 0.113l-0.003 0.014a0.006 0.006 0 0 0 0.007 0.007l0.014 -0.003a0.244 0.244 0 0 0 0.113 -0.064l0.072 -0.072a0.047 0.047 0 1 0 -0.067 -0.067Z"
    stroke="currentColor"
    stroke-width="0.03"
  />
  <path
    d="M0.24 0.06c-0.02 0 -0.041 0.002 -0.061 0.007A0.15 0.15 0 0 0 0.067 0.179a0.267 0.267 0 0 0 0 0.122 0.15 0.15 0 0 0 0.112 0.112c0.04 0.009 0.082 0.009 0.122 0a0.15 0.15 0 0 0 0.112 -0.112c0.005 -0.02 0.007 -0.041 0.007 -0.061"
    stroke="currentColor"
    stroke-width="0.03"
    stroke-linecap="round"
  />
</svg>
