<svg
  xmlns="http://www.w3.org/2000/svg"
  xmlns:xlink="http://www.w3.org/1999/xlink"
  x="0px"
  y="0px"
  viewBox="0 0 24 24"
  fill="currentColor"
  xml:space="preserve"
  width="24"
  height="24"
>
  <path
    d="M12.409 16.781c0.211 0.098 0.46 0.069 0.637 -0.078l9.463 -7.837c0.137 -0.113 0.216 -0.284 0.216 -0.46 0 -0.181 -0.078 -0.348 -0.22 -0.46l-9.458 -7.807c-0.181 -0.147 -0.426 -0.181 -0.637 -0.078 -0.211 0.098 -0.343 0.309 -0.343 0.544v4.1c-10.849 0.392 -10.805 8.62 -10.785 12.607v0.475c0 0.274 0.181 0.509 0.446 0.578 0.049 0.015 0.103 0.02 0.152 0.02 0.211 0 0.411 -0.113 0.524 -0.304 3.203 -5.642 5.838 -5.917 9.663 -5.931v4.09c0 0.23 0.132 0.441 0.343 0.544m-9.918 -1.112c0.054 -1.739 0.284 -3.811 1.234 -5.564 1.509 -2.792 4.433 -4.173 8.944 -4.217 0.328 -0.005 0.593 -0.269 0.593 -0.598v-3.419l7.92 6.534 -7.915 6.553v-3.414c0 -0.157 -0.064 -0.313 -0.176 -0.426s-0.264 -0.176 -0.426 -0.176c-4.197 0.005 -7.092 0.255 -10.173 4.726"
  />
  <path
    d="M22.606 23.402v-11.069c0 -0.333 -0.269 -0.602 -0.602 -0.602s-0.602 0.269 -0.602 0.602v10.467h-18.92v-2.038c0 -0.333 -0.269 -0.602 -0.602 -0.602s-0.602 0.269 -0.602 0.602v2.635c0 0.333 0.269 0.602 0.602 0.602h20.125c0.333 0 0.602 -0.269 0.602 -0.598"
  />
</svg>
