<svg
  fill="currentColor"
  width="16px"
  height="16px"
  viewBox="0 0 0.72 0.72"
  version="1.1"
  xmlns="http://www.w3.org/2000/svg"
  xmlns:xlink="http://www.w3.org/1999/xlink"
>
  <path
    d="M0.64 0.08H0.08a0.04 0.04 0 0 0 -0.04 0.04v0.48a0.04 0.04 0 0 0 0.04 0.04h0.56a0.04 0.04 0 0 0 0.04 -0.04V0.12a0.04 0.04 0 0 0 -0.04 -0.04M0.08 0.6V0.12h0.56v0.48Z"
  />
  <path d="M0.178 0.28a0.06 0.06 0 1 0 -0.06 -0.06 0.06 0.06 0 0 0 0.06 0.06m0 -0.092A0.032 0.032 0 1 1 0.147 0.22a0.032 0.032 0 0 1 0.032 -0.032Z" />
  <path
    d="m0.456 0.307 -0.108 0.108 -0.08 -0.08a0.02 0.02 0 0 0 -0.028 0L0.118 0.458v0.057l0.136 -0.136L0.32 0.444l-0.075 0.075H0.3l0.169 -0.169L0.6 0.48v-0.056l-0.116 -0.116a0.02 0.02 0 0 0 -0.028 0"
  />
</svg>
