<svg
  xmlns="http://www.w3.org/2000/svg"
  xmlns:xlink="http://www.w3.org/1999/xlink"
  viewBox="0 0 16 16"
  width="16"
  height="16"
  fill="currentColor"
>
  <path
    d="M14.761 0.064H1.238A1.24 1.24 0 0 0 0 1.302V14.698a1.24 1.24 0 0 0 1.238 1.238h13.524a1.24 1.24 0 0 0 1.238 -1.238V1.302A1.24 1.24 0 0 0 14.761 0.064M0.725 1.302c0 -0.283 0.23 -0.514 0.513 -0.514h4.356C3.271 1.565 1.443 3.43 0.725 5.779zm0.513 13.909A0.515 0.515 0 0 1 0.725 14.697v-4.476c0.718 2.348 2.546 4.213 4.869 4.99zm-0.121 -7.211c0 -3.795 3.087 -6.882 6.883 -6.882S14.883 4.205 14.883 8s-3.088 6.882 -6.882 6.882c-3.796 0 -6.883 -3.087 -6.883 -6.882m14.158 6.698c0 0.283 -0.23 0.513 -0.513 0.513H10.406c2.323 -0.777 4.151 -2.641 4.869 -4.99zm0 -8.919C14.556 3.43 12.728 1.566 10.405 0.789h4.356a0.513 0.513 0 0 1 0.513 0.513z"
  />
  <path cx="17.01" cy="22.071" r="3" d="M7.253 8A1.087 1.087 0 0 1 6.165 9.087A1.087 1.087 0 0 1 5.078 8A1.087 1.087 0 0 1 7.253 8z" />
  <path cx="27.133" cy="22.071" r="3" d="M10.922 8A1.087 1.087 0 0 1 9.835 9.087A1.087 1.087 0 0 1 8.747 8A1.087 1.087 0 0 1 10.922 8z" />
</svg>
