<svg xmlns="http://www.w3.org/2000/svg" width="24" height="24" fill="currentColor" viewBox="0 0 24 24">
  <path fill-rule="evenodd" d="M5.5 4.5A3.5 3.5 0 0 0 2 8v5.5A3.5 3.5 0 0 0 5.5 17H7v2.4a1 1 0 0 0 1.62.78L12.6 17h5.9a3.5 3.5 0 0 0 3.5-3.5V8a3.5 3.5 0 0 0-3.5-3.5zm-1.5 3A1.5 1.5 0 0 1 5.5 6h13A1.5 1.5 0 0 1 20 7.5V14a1.5 1.5 0 0 1-1.5 1.5h-6.25a1 1 0 0 0-.62.22L9 17.82V16a1 1 0 0 0-1-1H5.5A1.5 1.5 0 0 1 4 13.5z" clip-rule="evenodd"/>
  <path d="M7 9.75a1 1 0 0 1 1-1h5.5a1 1 0 1 1 0 2H8a1 1 0 0 1-1-1m0 3a1 1 0 0 1 1-1h8a1 1 0 1 1 0 2H8a1 1 0 0 1-1-1"/>
</svg>
