<svg xmlns="http://www.w3.org/2000/svg" width="24" height="24" fill="currentColor" viewBox="0 0 24 24">
  <path fill-rule="evenodd" d="M10.7 2.5a2.2 2.2 0 0 0-2.04 1.39l-.38.95a7.8 7.8 0 0 0-.92.53l-1.01-.15a2.2 2.2 0 0 0-2.28 1.1l-1.3 2.36a2.2 2.2 0 0 0 .25 2.52l.64.8q-.03.5 0 1l-.64.8a2.2 2.2 0 0 0-.25 2.52l1.3 2.36a2.2 2.2 0 0 0 2.28 1.1l1.01-.15q.44.3.92.53l.38.95a2.2 2.2 0 0 0 2.04 1.39h2.6a2.2 2.2 0 0 0 2.04-1.39l.38-.95q.48-.23.92-.53l1.01.15a2.2 2.2 0 0 0 2.28-1.1l1.3-2.36a2.2 2.2 0 0 0-.25-2.52l-.64-.8q.03-.5 0-1l.64-.8a2.2 2.2 0 0 0 .25-2.52l-1.3-2.36a2.2 2.2 0 0 0-2.28-1.1l-1.01.15q-.44-.3-.92-.53l-.38-.95A2.2 2.2 0 0 0 13.3 2.5zm.3 2h2l.56 1.4a1 1 0 0 0 .56.56q.83.34 1.48.86a1 1 0 0 0 .77.2l1.5-.23 1 1.82-.95 1.18a1 1 0 0 0-.21.77q.06.46.06.94t-.06.94a1 1 0 0 0 .21.77l.95 1.18-1 1.82-1.5-.23a1 1 0 0 0-.77.2q-.65.52-1.48.86a1 1 0 0 0-.56.56L13 20.5h-2l-.56-1.4a1 1 0 0 0-.56-.56 6 6 0 0 1-1.48-.86 1 1 0 0 0-.77-.2l-1.5.23-1-1.82.95-1.18a1 1 0 0 0 .21-.77 7 7 0 0 1-.06-.94q0-.48.06-.94a1 1 0 0 0-.21-.77l-.95-1.18 1-1.82 1.5.23a1 1 0 0 0 .77-.2q.65-.52 1.48-.86a1 1 0 0 0 .56-.56z" clip-rule="evenodd"/>
  <path d="M12 15.5a3.5 3.5 0 1 0 0-7 3.5 3.5 0 0 0 0 7m0-2a1.5 1.5 0 1 1 0-3 1.5 1.5 0 0 1 0 3"/>
</svg>
