<svg fill="currentColor" width="24px" height="24px" viewBox="0 0 0.72 0.72" version="1.1">
  <g stroke="none" stroke-width="1" fill="none">
    <g transform="translate(-960 -144)">
      <g transform="translate(960 144)">
        <path
          d="M0.72 0v0.72H0V0zM0.378 0.698l0 0 -0.002 0.001 -0.001 0 0 0 -0.002 -0.001q0 0 -0.001 0l0 0 -0.001 0.013 0 0.001 0 0 0.003 0.002 0 0 0 0 0.003 -0.002 0 0 0 -0.001 -0.001 -0.013q0 0 -0.001 -0.001m0.008 -0.003 0 0 -0.006 0.003 0 0 0 0 0.001 0.013 0 0 0 0 0.006 0.003q0.001 0 0.001 0l0 0 -0.001 -0.018q0 -0.001 -0.001 -0.001m-0.021 0a0.001 0.001 0 0 0 -0.001 0l0 0 -0.001 0.018q0 0.001 0.001 0.001l0 0 0.006 -0.003 0 0 0 0 0.001 -0.013 0 0 0 0z"
        />
        <path
          d="M0.36 0.075a0.045 0.045 0 0 1 0.045 0.041L0.405 0.12v0.48a0.045 0.045 0 0 1 -0.09 0.004L0.315 0.6V0.12A0.045 0.045 0 0 1 0.36 0.075m-0.12 0.09A0.045 0.045 0 0 1 0.285 0.21v0.3a0.045 0.045 0 0 1 -0.09 0V0.21A0.045 0.045 0 0 1 0.24 0.165m0.24 0A0.045 0.045 0 0 1 0.525 0.21v0.3a0.045 0.045 0 0 1 -0.09 0V0.21A0.045 0.045 0 0 1 0.48 0.165m-0.36 0.09A0.045 0.045 0 0 1 0.165 0.3v0.12a0.045 0.045 0 0 1 -0.09 0v-0.12A0.045 0.045 0 0 1 0.12 0.255m0.48 0a0.045 0.045 0 0 1 0.045 0.041L0.645 0.3v0.12a0.045 0.045 0 0 1 -0.09 0.004L0.555 0.42v-0.12A0.045 0.045 0 0 1 0.6 0.255"
          fill="currentColor"
        />
      </g>
    </g>
  </g>
</svg>
