<svg width="24px" height="24px" viewBox="0 0 0.48 0.48" xmlns="http://www.w3.org/2000/svg">
  <path
    d="M0.135 0c-0.008 0 -0.015 0.007 -0.015 0.015v0.03c0 0.008 0.007 0.015 0.015 0.015h0.03c0.008 0 0.015 -0.007 0.015 -0.015v-0.03c0 -0.008 -0.007 -0.015 -0.015 -0.015zm0.09 0c-0.008 0 -0.015 0.007 -0.015 0.015v0.03c0 0.008 0.007 0.015 0.015 0.015h0.03c0.008 0 0.015 -0.007 0.015 -0.015v-0.03c0 -0.008 -0.007 -0.015 -0.015 -0.015zm0.09 0c-0.008 0 -0.015 0.007 -0.015 0.015v0.03c0 0.008 0.007 0.015 0.015 0.015h0.03c0.008 0 0.015 -0.007 0.015 -0.015v-0.03c0 -0.008 -0.007 -0.015 -0.015 -0.015zM0.21 0.09v0.198L0.171 0.249a0.03 0.03 0 1 0 -0.042 0.042l0.09 0.09a0.03 0.03 0 0 0 0.042 0l0.09 -0.09a0.03 0.03 0 1 0 -0.042 -0.042L0.27 0.288V0.09zM0.03 0.42v0.06h0.42v-0.06zm0 0"
    fill="currentColor"
  />
</svg>
