<svg fill="currentColor" width="18px" height="18px" viewBox="0 0 0.54 0.54" xmlns="http://www.w3.org/2000/svg">
  <path
    d="M0.396 0.144a0.179 0.179 0 0 1 -0.039 0.283 0.181 0.181 0 0 1 -0.261 -0.113 0.181 0.181 0 0 1 0.047 -0.169c0.01 -0.01 -0.006 -0.026 -0.016 -0.016a0.201 0.201 0 0 0 0.22 0.328 0.201 0.201 0 0 0 0.065 -0.328c-0.01 -0.01 -0.026 0.006 -0.016 0.016Z"
    fill="none"
    stroke="currentColor"
    stroke-width="0.02"
  />
  <path
    d="m0.345 0.238 -0.068 0.068a0.011 0.011 0 0 1 -0.008 0.003 0.011 0.011 0 0 1 -0.008 -0.003l-0.068 -0.068a0.011 0.011 0 0 1 0.016 -0.016l0.048 0.048V0.08a0.011 0.011 0 0 1 0.011 -0.011 0.011 0.011 0 0 1 0.011 0.011v0.191l0.048 -0.049a0.011 0.011 0 0 1 0.016 0.016Z"
    fill="none"
    stroke="currentColor"
    stroke-width="0.02"
  />
</svg>
