<svg
  fill="currentColor"
  width="16px"
  height="16px"
  viewBox="0 0 0.72 0.72"
  version="1.1"
  xmlns="http://www.w3.org/2000/svg"
>
  <path
    d="M0.362 0.22c-0.078 0 -0.14 0.062 -0.14 0.14s0.062 0.14 0.14 0.14 0.14 -0.062 0.14 -0.14 -0.062 -0.14 -0.14 -0.14m0 0.24c-0.056 0 -0.1 -0.044 -0.1 -0.1s0.044 -0.1 0.1 -0.1 0.1 0.044 0.1 0.1 -0.044 0.1 -0.1 0.1"
  />
  <path
    d="m0.656 0.294 -0.056 -0.018 -0.012 -0.03 0.028 -0.052c0.006 -0.012 0.004 -0.028 -0.006 -0.038l-0.048 -0.048c-0.01 -0.01 -0.026 -0.012 -0.038 -0.006l-0.052 0.028 -0.03 -0.012 -0.018 -0.056C0.42 0.05 0.408 0.04 0.394 0.04h-0.068c-0.014 0 -0.026 0.01 -0.028 0.024L0.28 0.12c-0.012 0.002 -0.022 0.006 -0.032 0.012L0.196 0.104c-0.012 -0.006 -0.028 -0.004 -0.038 0.006L0.11 0.158c-0.01 0.01 -0.012 0.026 -0.006 0.038l0.026 0.05c-0.004 0.01 -0.008 0.022 -0.012 0.032l-0.056 0.018c-0.012 0.004 -0.022 0.016 -0.022 0.03v0.068c0 0.014 0.01 0.026 0.024 0.03l0.056 0.018 0.012 0.03 -0.028 0.052c-0.006 0.012 -0.004 0.028 0.006 0.038l0.048 0.048c0.01 0.01 0.026 0.012 0.038 0.006l0.052 -0.028 0.03 0.012 0.018 0.058c0.004 0.012 0.016 0.022 0.03 0.022h0.068c0.014 0 0.026 -0.01 0.03 -0.022l0.018 -0.058 0.03 -0.012 0.052 0.028c0.012 0.006 0.028 0.004 0.038 -0.006l0.048 -0.048c0.01 -0.01 0.012 -0.026 0.006 -0.038l-0.028 -0.052 0.012 -0.03 0.058 -0.018c0.012 -0.004 0.022 -0.016 0.022 -0.03v-0.068c0 -0.014 -0.01 -0.028 -0.024 -0.032m-0.016 0.094 -0.072 0.022 -0.002 0.01 -0.018 0.042 -0.006 0.01 0.036 0.066 -0.04 0.04 -0.066 -0.036 -0.01 0.006q-0.021 0.012 -0.042 0.018l-0.01 0.002 -0.022 0.072h-0.056l-0.022 -0.072 -0.01 -0.002 -0.042 -0.018 -0.01 -0.006 -0.066 0.036 -0.04 -0.04 0.036 -0.066 -0.006 -0.01Q0.16 0.441 0.154 0.42l-0.002 -0.01L0.08 0.388v-0.056l0.068 -0.02 0.004 -0.01c0.004 -0.016 0.01 -0.03 0.018 -0.044l0.006 -0.01 -0.034 -0.066 0.04 -0.04 0.064 0.036 0.01 -0.006c0.014 -0.008 0.028 -0.014 0.044 -0.018l0.01 -0.004L0.332 0.08h0.056l0.022 0.07 0.01 0.004q0.021 0.006 0.042 0.018l0.01 0.006 0.066 -0.036 0.04 0.04 -0.036 0.066 0.006 0.01q0.012 0.021 0.018 0.042l0.002 0.01 0.072 0.022z"
  />
  <path x="0" y="0" width="36" height="36" fill-opacity="0" d="M0 0H0.72V0.72H0V0z" />
</svg>
