<svg version="1.1" id="Icons" xmlns="http://www.w3.org/2000/svg" xmlns:xlink="http://www.w3.org/1999/xlink" viewBox="0 0 24 24" xml:space="preserve" width="24" height="24">
  <style type="text/css">
    .st0{fill:none;stroke:#000000;stroke-width:2;stroke-linecap:round;stroke-linejoin:round;stroke-miterlimit:10;}
  </style>
  <path class="st0" d="M12 19.125c0 1.425 1.2 2.625 2.625 2.625 1.35 0 2.4 -0.975 2.625 -2.25 2.1 -0.15 3.75 -1.95 3.75 -4.125 0 -1.05 -0.375 -1.95 -0.975 -2.7 1.05 -0.75 1.725 -1.95 1.725 -3.3 0 -2.25 -1.875 -4.125 -4.125 -4.125H17.25v-0.375C17.25 3.45 16.05 2.25 14.625 2.25S12 3.45 12 4.875"/>
  <path class="st0" d="M12 19.125c0 1.425 -1.2 2.625 -2.625 2.625 -1.35 0 -2.4 -0.975 -2.625 -2.25 -2.1 -0.15 -3.75 -1.95 -3.75 -4.125 0 -1.05 0.375 -1.95 0.975 -2.7C2.925 12 2.25 10.725 2.25 9.375 2.25 7.125 4.125 5.25 6.375 5.25H6.75v-0.375C6.75 3.45 7.95 2.25 9.375 2.25S12 3.45 12 4.875"/>
  <path class="st0" d="M21 15.75c0 -1.575 -0.975 -2.925 -2.4 -3.525"/>
  <path class="st0" d="M5.1 13.275C3.45 12.75 2.25 11.175 2.25 9.375"/>
  <path class="st0" d="M7.65 6.9C7.125 6.375 6.75 5.7 6.75 4.875"/>
  <path class="st0" points="21,15 17,15 19.5,9 11,17 15,17 13,23 " d="M15.75 11.25L12.75 11.25L14.625 6.75L8.25 12.75L11.25 12.75L9.75 17.25Z"/>
</svg>
