<svg width="32px" height="32px" viewBox="0 0 40.96 40.96" class="icon" version="1.1" xmlns="http://www.w3.org/2000/svg">
  <path d="M14.093 3.171c1.419 0 2.566 1.141 2.566 2.554v7.636a2.56 2.56 0 0 1 -2.566 2.554H7.238a2.557 2.557 0 0 1 -2.563 -2.554V5.726c0 -1.41 1.147 -2.554 2.563 -2.554zm0 20.41c1.419 0 2.566 1.141 2.566 2.554v7.636a2.56 2.56 0 0 1 -2.566 2.554H7.238a2.557 2.557 0 0 1 -2.563 -2.554V26.135c0 -1.413 1.147 -2.554 2.563 -2.554zM33.722 3.171c1.416 0 2.563 1.141 2.563 2.554v7.636a2.56 2.56 0 0 1 -2.563 2.554H26.867a2.557 2.557 0 0 1 -2.566 -2.554V5.726c0 -1.41 1.15 -2.554 2.566 -2.554zM6.922 18.356h7.487c2.58 0 4.669 -2.077 4.669 -4.643V5.375A4.652 4.652 0 0 0 14.409 0.731h-7.484c-2.58 0 -4.672 2.077 -4.672 4.646v8.335a4.652 4.652 0 0 0 4.669 4.643m0 20.41h7.487c2.58 0 4.669 -2.077 4.669 -4.646V25.784A4.652 4.652 0 0 0 14.409 21.141h-7.484c-2.58 0 -4.669 2.077 -4.669 4.643v8.338A4.652 4.652 0 0 0 6.925 38.766zm19.632 -20.41H34.035c2.58 0 4.669 -2.077 4.669 -4.643V5.375A4.652 4.652 0 0 0 34.035 0.731h-7.484c-2.58 0 -4.666 2.077 -4.666 4.646v8.335a4.652 4.652 0 0 0 4.669 4.643m7.159 17.955H26.548c-1.545 0 -2.212 -0.644 -2.212 -2.191V25.784c0 -1.542 0.67 -2.215 2.215 -2.215H34.035c1.551 0 2.247 0.67 2.247 2.212v8.344c0 0.512 0.547 1.1 1.261 1.1s1.162 -0.588 1.162 -1.1V25.781A4.652 4.652 0 0 0 34.035 21.141h-7.484c-2.58 0 -4.669 2.077 -4.669 4.643v8.338a4.652 4.652 0 0 0 4.667 4.643h7.464c0.538 0 1.229 -0.439 1.229 -1.232a1.229 1.229 0 0 0 -1.205 -1.223h-0.319z" fill="#000000"/>
</svg>
