<svg width="24" height="24" viewBox="0 0 1.05 1.05" fill="none" xmlns="http://www.w3.org/2000/svg">
  <path
    d="M0.54 1.042A0.34 0.34 0 0 1 0.201 0.703V0.24a0.233 0.233 0 0 1 0.467 0V0.675a0.137 0.137 0 1 1 -0.275 0V0.279a0.037 0.037 0 0 1 0.075 0V0.675a0.062 0.062 0 1 0 0.124 0V0.24a0.158 0.158 0 0 0 -0.316 0v0.463a0.265 0.265 0 0 0 0.264 0.264c0.138 0 0.234 -0.109 0.234 -0.264v-0.413a0.037 0.037 0 0 1 0.075 0v0.414c0 0.196 -0.129 0.338 -0.309 0.338"
    stroke="currentColor" 
    stroke-width="0.05" 
    stroke-linecap="round" 
    stroke-linejoin="round"
  />
</svg>