<svg width="16px" height="16px" viewBox="0 0 0.3 0.3" fill="currentColor" xmlns="http://www.w3.org/2000/svg">
  <path
    fill-rule="evenodd"
    clip-rule="evenodd"
    d="M0.02 0.19A0.03 0.03 0 0 0 0.05 0.22H0.08v-0.02H0.05a0.01 0.01 0 0 1 -0.01 -0.01v-0.14a0.01 0.01 0 0 1 0.01 -0.01h0.14a0.01 0.01 0 0 1 0.01 0.01V0.08H0.11A0.03 0.03 0 0 0 0.08 0.11v0.14A0.03 0.03 0 0 0 0.11 0.28h0.14a0.03 0.03 0 0 0 0.03 -0.03v-0.14A0.03 0.03 0 0 0 0.25 0.08H0.22V0.05A0.03 0.03 0 0 0 0.19 0.02h-0.14A0.03 0.03 0 0 0 0.02 0.05zm0.08 -0.08a0.01 0.01 0 0 1 0.01 -0.01h0.14a0.01 0.01 0 0 1 0.01 0.01v0.14a0.01 0.01 0 0 1 -0.01 0.01h-0.14a0.01 0.01 0 0 1 -0.01 -0.01z"
    fill="currentColor"
  />
</svg>
