<svg width="16px" height="16px" viewBox="0 0 0.48 0.48" fill="currentColor" xmlns="http://www.w3.org/2000/svg">
  <path
    d="M0.14 0.08a0.04 0.04 0 0 1 0.04 -0.04h0.12a0.04 0.04 0 0 1 0.04 0.04v0.04h0.08a0.02 0.02 0 1 1 0 0.04h-0.021l-0.017 0.243A0.04 0.04 0 0 1 0.341 0.44H0.139a0.04 0.04 0 0 1 -0.04 -0.037L0.081 0.16H0.06a0.02 0.02 0 0 1 0 -0.04h0.08zm0.04 0.04h0.12V0.08H0.18zM0.121 0.16l0.017 0.24H0.341l0.017 -0.24zM0.2 0.2a0.02 0.02 0 0 1 0.02 0.02v0.12a0.02 0.02 0 1 1 -0.04 0v-0.12a0.02 0.02 0 0 1 0.02 -0.02m0.08 0a0.02 0.02 0 0 1 0.02 0.02v0.12a0.02 0.02 0 1 1 -0.04 0v-0.12a0.02 0.02 0 0 1 0.02 -0.02"
    fill="currentColor"
  />
</svg>
