<svg xmlns="http://www.w3.org/2000/svg" width="24" height="24" fill="currentColor" viewBox="0 0 24 24">
  <path fill-rule="evenodd" d="M6.5 4A3.5 3.5 0 0 0 3 7.5v9A3.5 3.5 0 0 0 6.5 20h11a3.5 3.5 0 0 0 3.5-3.5v-9A3.5 3.5 0 0 0 17.5 4zM5 7.5A1.5 1.5 0 0 1 6.5 6h11A1.5 1.5 0 0 1 19 7.5v7.32l-2.72-2.72a2 2 0 0 0-2.82 0l-1.7 1.7-.55-.55a2 2 0 0 0-2.82 0L5.7 15.94A1.5 1.5 0 0 1 5 14.67zm2.22 10.48c-.15-.02-.3-.06-.44-.13l3.02-3.03 2.26 2.26a1 1 0 0 0 1.42-1.42l-.31-.31 1.7-1.7L19 17.78c-.27.14-.59.22-.92.22z" clip-rule="evenodd"/>
  <path d="M8.5 10.5a1.5 1.5 0 1 0 0-3 1.5 1.5 0 0 0 0 3"/>
</svg>
