<svg width="24px" height="24px" viewBox="0 -0.36 4.71 4.71" fill="none" xmlns="http://www.w3.org/2000/svg">
  <g clip-path="url(#clip0)">
    <path d="M3.795 3.499c-0.013 0.042 -0.022 0.077 -0.034 0.111 -0.079 0.217 -0.246 0.322 -0.461 0.365a0.669 0.669 0 0 1 -0.496 -0.095c-0.144 -0.089 -0.213 -0.223 -0.227 -0.398 -0.028 -0.002 -0.057 -0.007 -0.085 -0.007 -0.621 -0.005 -1.242 -0.008 -1.863 -0.014 -0.136 -0.001 -0.272 -0.011 -0.407 -0.021a0.171 0.171 0 0 1 -0.099 -0.039 0.153 0.153 0 0 1 -0.038 -0.095c-0.002 -0.041 0.03 -0.064 0.069 -0.073a0.309 0.309 0 0 1 0.059 -0.007c0.245 -0.005 0.491 -0.01 0.736 -0.013q0.702 -0.008 1.405 -0.013c0.099 -0.001 0.199 0 0.286 0 0.069 -0.081 0.126 -0.16 0.195 -0.226 0.17 -0.161 0.374 -0.195 0.593 -0.133 0.153 0.043 0.263 0.139 0.295 0.305 0.003 0.016 0.01 0.032 0.02 0.062 0.031 0 0.067 0 0.102 0 0.209 0.003 0.418 0.004 0.628 0.01a0.462 0.462 0 0 1 0.136 0.025 0.127 0.127 0 0 1 0.087 0.132c0.001 0.027 -0.008 0.053 -0.023 0.075a0.124 0.124 0 0 1 -0.064 0.046 0.438 0.438 0 0 1 -0.136 0.019c-0.189 -0.003 -0.379 -0.009 -0.568 -0.014 -0.033 -0.001 -0.066 0 -0.108 0m-0.301 -0.136c0 -0.097 -0.023 -0.194 -0.068 -0.254a0.128 0.128 0 0 0 -0.069 -0.046c-0.196 -0.039 -0.405 0.11 -0.456 0.284 -0.044 0.151 0.004 0.247 0.151 0.301 0.242 0.089 0.443 -0.04 0.442 -0.284z" fill="#000000"/>
    <path d="M1.779 1.797c0.096 0 0.182 0.002 0.267 0q0.608 -0.017 1.216 -0.037c0.372 -0.013 0.744 -0.028 1.116 -0.041a0.759 0.759 0 0 1 0.139 0.003 0.142 0.142 0 0 1 0.088 0.043 0.142 0.142 0 0 1 0.039 0.09c0.001 0.061 -0.042 0.113 -0.115 0.132a0.42 0.42 0 0 1 -0.098 0.012q-0.902 0.02 -1.804 0.039c-0.269 0.006 -0.538 0.014 -0.807 0.022 -0.016 0 -0.032 0.004 -0.057 0.006 -0.064 0.308 -0.282 0.438 -0.57 0.44 -0.256 0.002 -0.451 -0.125 -0.533 -0.387 -0.129 -0.006 -0.255 -0.01 -0.381 -0.018a0.66 0.66 0 0 1 -0.136 -0.025 0.085 0.085 0 0 1 -0.049 -0.033 0.085 0.085 0 0 1 -0.016 -0.057 0.083 0.083 0 0 1 0.021 -0.055 0.082 0.082 0 0 1 0.052 -0.027 0.549 0.549 0 0 1 0.109 -0.008c0.129 -0.001 0.259 0 0.389 0 0.014 -0.04 0.025 -0.067 0.032 -0.095a0.588 0.588 0 0 1 0.176 -0.285 0.419 0.419 0 0 1 0.192 -0.095 1.44 1.44 0 0 1 0.317 -0.019c0.2 0.007 0.322 0.123 0.388 0.306 0.01 0.028 0.016 0.057 0.025 0.09m-0.608 -0.116c-0.039 0.009 -0.109 0.008 -0.159 0.039 -0.121 0.074 -0.118 0.352 0.001 0.431 0.108 0.072 0.225 0.069 0.341 0.015 0.104 -0.049 0.115 -0.152 0.117 -0.245 0.003 -0.131 -0.03 -0.216 -0.198 -0.23 -0.026 -0.002 -0.053 -0.005 -0.102 -0.01" fill="#000000"/>
    <path d="M2.931 0.699c-0.03 0 -0.053 0 -0.076 0q-1.211 0.01 -2.422 0.019 -0.105 0.001 -0.209 -0.003a0.576 0.576 0 0 1 -0.108 -0.014c-0.058 -0.014 -0.094 -0.055 -0.092 -0.103a0.101 0.101 0 0 1 0.023 -0.065 0.1 0.1 0 0 1 0.059 -0.035 0.639 0.639 0 0 1 0.117 -0.019c0.856 -0.055 1.713 -0.057 2.57 -0.065 0.05 0 0.099 0 0.151 0 0.018 -0.039 0.035 -0.071 0.049 -0.104a0.376 0.376 0 0 1 0.18 -0.194c0.12 -0.058 0.244 -0.105 0.379 -0.114 0.231 -0.016 0.372 0.077 0.449 0.296 0.01 0.028 0.019 0.056 0.031 0.092 0.12 -0.006 0.238 -0.012 0.357 -0.016a0.522 0.522 0 0 1 0.128 0.008 0.13 0.13 0 0 1 0.105 0.119 0.13 0.13 0 0 1 -0.088 0.132 0.492 0.492 0 0 1 -0.126 0.026c-0.129 0.011 -0.258 0.02 -0.392 0.029 -0.08 0.288 -0.288 0.406 -0.568 0.398 -0.25 -0.007 -0.44 -0.117 -0.515 -0.387m0.244 -0.15c-0.021 0.134 0.109 0.277 0.249 0.273 0.208 -0.007 0.333 -0.124 0.333 -0.28 0 -0.176 -0.083 -0.27 -0.276 -0.279 -0.184 -0.009 -0.304 0.11 -0.305 0.287" fill="#000000"/>
  </g>
  <defs>
    <clipPath id="clip0">
      <path width="156" height="133" fill="white" transform="translate(.777)" d="M0 0H4.68V3.99H0V0z"/>
    </clipPath>
  </defs>
</svg>
