<!-- created by svgstack.com | Attribution is required. --><svg width="128" height="128" viewBox="0 0 128 128" fill="none" xmlns="http://www.w3.org/2000/svg"><path d="M66.9118 12.639C68.8053 15.9635 70.6892 19.2976 72.5683 22.6366C72.6442 22.7701 72.7543 22.8811 72.8872 22.9581C73.0201 23.0352 73.1711 23.0755 73.3247 23.075H100.075C100.913 23.075 101.626 23.605 102.224 24.6506L109.229 37.0332C110.145 38.6569 110.386 39.3363 109.345 41.066C108.092 43.1378 106.873 45.2288 105.683 47.3295L103.915 50.4999C103.404 51.4442 102.841 51.849 103.722 52.9668L116.5 75.3085C117.329 76.7587 117.035 77.6886 116.293 79.0184C114.187 82.8007 112.043 86.554 109.861 90.2929C109.094 91.6034 108.165 92.0997 106.584 92.0756C102.841 91.9985 99.1065 92.0274 95.3725 92.1527C95.2924 92.1568 95.2147 92.181 95.1465 92.2231C95.0783 92.2653 95.0218 92.3239 94.9822 92.3936C90.674 100.027 86.3296 107.64 81.9492 115.232C81.1349 116.643 80.1183 116.981 78.456 116.985C73.6524 117 68.8102 117.005 63.9198 116.995C63.4645 116.994 63.0176 116.872 62.6242 116.643C62.2308 116.414 61.9049 116.085 61.6793 115.689L55.2471 104.497C55.2097 104.424 55.1523 104.362 55.0815 104.321C55.0107 104.279 54.9294 104.258 54.8473 104.261H30.1881C28.8149 104.405 27.5237 104.256 26.3095 103.817L18.5861 90.4711C18.3577 90.076 18.2366 89.6279 18.2349 89.1715C18.2332 88.7151 18.351 88.2662 18.5764 87.8693L24.3919 77.6549C24.4747 77.5104 24.5183 77.3468 24.5183 77.1803C24.5183 77.0138 24.4747 76.8502 24.3919 76.7057C21.3626 71.4611 18.3513 66.2061 15.3579 60.9408L11.5516 54.2195C10.7807 52.7259 10.7181 51.8297 12.0093 49.57C14.2498 45.6528 16.4757 41.7405 18.6921 37.833C19.3281 36.7056 20.1568 36.2237 21.5059 36.2189C25.6639 36.2014 29.8219 36.1998 33.98 36.2141C34.085 36.2133 34.188 36.1848 34.2785 36.1315C34.369 36.0782 34.4438 36.002 34.4955 35.9106L48.0152 12.3258C48.22 11.967 48.5159 11.6685 48.8728 11.4604C49.2298 11.2524 49.6352 11.142 50.0484 11.1405C52.5731 11.1357 55.1219 11.1405 57.6755 11.1116L62.5755 11.0008C64.2185 10.9863 66.0638 11.155 66.9118 12.639ZM50.376 14.5807C50.3253 14.5806 50.2754 14.594 50.2314 14.6194C50.1874 14.6447 50.1509 14.6812 50.1255 14.7252L36.3168 38.8882C36.2505 39.002 36.1556 39.0966 36.0415 39.1625C35.9274 39.2284 35.7981 39.2634 35.6663 39.264H21.8576C21.5878 39.264 21.5203 39.3844 21.66 39.6205L49.6533 88.5535C49.7738 88.7559 49.7159 88.8522 49.4895 88.8571L36.0228 88.9293C35.826 88.9228 35.6312 88.9717 35.4608 89.0705C35.2904 89.1693 35.1513 89.3141 35.0592 89.4882L28.6993 100.618C28.4873 100.994 28.5981 101.187 29.0269 101.187L56.5673 101.225C56.7889 101.225 56.9528 101.322 57.0684 101.519L63.8282 113.343C64.0499 113.733 64.2715 113.738 64.4979 113.343L88.6175 71.136L92.39 64.4773C92.413 64.4362 92.4466 64.4019 92.4873 64.3781C92.5279 64.3542 92.5742 64.3417 92.6213 64.3417C92.6684 64.3417 92.7147 64.3542 92.7554 64.3781C92.796 64.4019 92.8296 64.4362 92.8526 64.4773L99.7136 76.6672C99.7651 76.7584 99.8401 76.8342 99.9307 76.8867C100.021 76.9392 100.124 76.9666 100.229 76.9659L113.542 76.8695C113.576 76.8698 113.609 76.8611 113.639 76.8442C113.669 76.8272 113.693 76.8027 113.71 76.7732C113.727 76.7437 113.735 76.7105 113.735 76.6768C113.735 76.6431 113.727 76.6099 113.71 76.5804L99.7377 52.0754C99.6874 51.9935 99.6608 51.8993 99.6608 51.8032C99.6608 51.7071 99.6874 51.6129 99.7377 51.531L101.149 49.0882L106.546 39.5627C106.661 39.3652 106.603 39.264 106.377 39.264H50.5109C50.2267 39.264 50.1592 39.1387 50.3038 38.893L57.2129 26.8236C57.2647 26.7413 57.2922 26.6461 57.2922 26.5489C57.2922 26.4517 57.2647 26.3565 57.2129 26.2743L50.6314 14.73C50.6062 14.6844 50.5692 14.6465 50.5243 14.6202C50.4793 14.5939 50.4281 14.5803 50.376 14.5807ZM80.682 53.2221C80.9036 53.2221 80.9615 53.3185 80.8458 53.5112L76.8371 60.5698L64.2474 82.6609C64.2237 82.7039 64.1888 82.7397 64.1464 82.7643C64.1039 82.7889 64.0556 82.8015 64.0065 82.8007C63.9576 82.8005 63.9097 82.7875 63.8674 82.7629C63.8251 82.7384 63.79 82.7033 63.7656 82.6609L47.1286 53.5979C47.0323 53.4341 47.0804 53.3474 47.2635 53.3378L48.3042 53.2799L80.6916 53.2221H80.682Z" fill="black"/></svg> 