<svg width="24px" height="24px" viewBox="0 0 0.72 0.72" version="1.1" xmlns="http://www.w3.org/2000/svg" xmlns:xlink="http://www.w3.org/1999/xlink">
  <title>video_line</title>
  <g id="页面-1" stroke="none" stroke-width="1" fill="none" fill-rule="evenodd">
    <g id="Media" transform="translate(-1296)">
      <g id="video_line" transform="translate(1296)">
        <path d="M0.72 0v0.72H0V0zM0.378 0.698l0 0 -0.002 0.001 -0.001 0 0 0 -0.002 -0.001q0 0 -0.001 0l0 0 -0.001 0.013 0 0.001 0 0 0.003 0.002 0 0 0 0 0.003 -0.002 0 0 0 -0.001 -0.001 -0.013q0 0 -0.001 -0.001m0.008 -0.003 0 0 -0.006 0.003 0 0 0 0 0.001 0.013 0 0 0 0 0.006 0.003q0.001 0 0.001 0l0 0 -0.001 -0.018q0 -0.001 -0.001 -0.001m-0.021 0a0.001 0.001 0 0 0 -0.001 0l0 0 -0.001 0.018q0 0.001 0.001 0.001l0 0 0.006 -0.003 0 0 0 0 0.001 -0.013 0 0 0 0z" id="MingCute" fill-rule="nonzero"/>
        <path d="M0.6 0.09a0.06 0.06 0 0 1 0.06 0.056L0.66 0.15v0.42a0.06 0.06 0 0 1 -0.056 0.06L0.6 0.63H0.12a0.06 0.06 0 0 1 -0.06 -0.056L0.06 0.57V0.15a0.06 0.06 0 0 1 0.056 -0.06L0.12 0.09zm0 0.06H0.12v0.42h0.48zm-0.29 0.079 0.016 0.007 0.01 0.005 0.012 0.006 0.013 0.007 0.014 0.007 0.015 0.008 0.008 0.005 0.016 0.009 0.014 0.009 0.013 0.008 0.011 0.008 0.014 0.01 0.011 0.008 0.003 0.002a0.037 0.037 0 0 1 0 0.059l-0.01 0.007 -0.013 0.009 -0.011 0.007 -0.012 0.008 -0.014 0.008 -0.015 0.009 -0.016 0.009 -0.015 0.008 -0.014 0.007 -0.013 0.007 -0.012 0.006 -0.019 0.009 -0.007 0.003a0.037 0.037 0 0 1 -0.051 -0.03l-0.002 -0.017 -0.001 -0.011 -0.001 -0.02 -0.001 -0.015 0 -0.017 0 -0.009 0 -0.009q0 -0.009 0 -0.018l0 -0.017 0.001 -0.015 0.001 -0.014 0.001 -0.012 0.002 -0.022a0.037 0.037 0 0 1 0.051 -0.03m0.018 0.075 -0.013 -0.007 -0.001 0.015 -0.001 0.017 0 0.018 0 0.01 0 0.01 0 0.018 0 0.008 0.001 0.016 0 0.007 0.013 -0.007 0.015 -0.008 0.016 -0.009 0.009 -0.005 0.017 -0.01 0.015 -0.009 0.013 -0.008 0.006 -0.004 -0.012 -0.008 -0.014 -0.009a0.9 0.9 0 0 0 -0.024 -0.014l-0.008 -0.005 -0.016 -0.009z" id="形状" fill="#09244B"/>
      </g>
    </g>
  </g>
</svg>
