<svg version="1.1" id="Capa_1" xmlns="http://www.w3.org/2000/svg" xmlns:xlink="http://www.w3.org/1999/xlink" x="0px" y="0px" viewBox="0 0 24 24" style="enable-background:new 0 0 269.393 269.393;" xml:space="preserve" width="24" height="24">
  <path d="M12 0C5.383 0 0 5.383 0 12s5.383 12 12 12 12 -5.383 12 -12S18.617 0 12 0m0.194 22.497c-1.15 0 -2.302 -0.782 -3.244 -2.202 -0.394 -0.594 -0.741 -1.285 -1.035 -2.047h3.417v1.86c0 0.369 0.299 0.668 0.668 0.668s0.668 -0.299 0.668 -0.668v-1.86h3.797c-0.987 2.561 -2.55 4.25 -4.271 4.25M1.358 12.668H3.495c0.26 1.041 1.114 1.849 2.179 2.043 0.1 0.769 0.24 1.504 0.415 2.2H2.536a10.584 10.584 0 0 1 -1.179 -4.243M12.668 1.548c1.23 0.225 2.403 1.314 3.304 3.077a2.37 2.37 0 0 0 -0.726 1.123h-2.578V1.548zm4.847 5.899c-0.568 0 -1.03 -0.462 -1.03 -1.03s0.462 -1.03 1.03 -1.03 1.03 0.462 1.03 1.03 -0.462 1.03 -1.03 1.03m-2.27 -0.362c0.268 0.909 1.068 1.592 2.039 1.687 0.14 0.83 0.224 1.687 0.253 2.56h-4.87V7.085zm-3.914 4.247H8.843c-0.231 -0.925 -0.931 -1.667 -1.832 -1.956 0.108 -0.798 0.266 -1.566 0.467 -2.291h3.855zm-5.163 2.088c-0.783 0 -1.42 -0.637 -1.42 -1.42s0.637 -1.42 1.42 -1.42 1.42 0.637 1.42 1.42 -0.637 1.42 -1.42 1.42m-0.494 -4.131c-1.066 0.194 -1.919 1.002 -2.18 2.043H1.358a10.584 10.584 0 0 1 1.181 -4.247H6.095a18.798 18.798 0 0 0 -0.421 2.204M7.011 14.624c0.901 -0.29 1.6 -1.031 1.831 -1.956h2.489v4.243h-3.857c-0.2 -0.723 -0.356 -1.491 -0.464 -2.287m5.657 2.287v-4.243h4.87c-0.051 1.515 -0.275 2.955 -0.634 4.243zm6.207 -4.243h1.633c0.369 0 0.668 -0.299 0.668 -0.668s-0.299 -0.668 -0.668 -0.668h-1.633c-0.03 -0.958 -0.122 -1.9 -0.278 -2.812 0.569 -0.294 1.004 -0.811 1.188 -1.435h1.676c0.768 1.472 1.203 3.144 1.203 4.915 0 1.77 -0.434 3.44 -1.2 4.911h-3.167c0.336 -1.323 0.533 -2.758 0.578 -4.243m1.758 -6.92h-0.848c-0.289 -0.98 -1.197 -1.698 -2.27 -1.698 -0.111 0 -0.219 0.008 -0.326 0.023 -0.394 -0.78 -0.841 -1.455 -1.33 -2.014 1.924 0.75 3.578 2.042 4.773 3.689m-9.301 -4.39v4.39H7.916c0.286 -0.741 0.623 -1.414 1.005 -1.998a0.668 0.668 0 1 0 -1.119 -0.731c-0.513 0.785 -0.953 1.71 -1.307 2.729H3.367c1.817 -2.502 4.693 -4.187 7.965 -4.39M3.363 18.247H6.487c0.556 1.606 1.319 2.937 2.221 3.896 -2.168 -0.705 -4.033 -2.087 -5.345 -3.896m12.504 3.691c0.424 -0.488 0.817 -1.064 1.174 -1.726 0.326 -0.605 0.611 -1.264 0.854 -1.965h2.741c-1.194 1.647 -2.847 2.94 -4.769 3.691"/>
</svg>
